<mxfile host="app.diagrams.net" modified="2022-03-08T20:54:39.030Z" agent="5.0 (Windows)" etag="Q50tHafieOpXUXS-njvU" version="16.5.6" type="github">
  <diagram id="KKkzK20IM7g0FWINfg9o" name="Page-1">
    <mxGraphModel dx="1511" dy="484" grid="1" gridSize="10" guides="1" tooltips="1" connect="1" arrows="1" fold="1" page="1" pageScale="1" pageWidth="850" pageHeight="1100" math="0" shadow="0">
      <root>
        <mxCell id="0" />
        <mxCell id="1" parent="0" />
        <mxCell id="WuP2q_bH3X3hUp2SNomI-1" value="&lt;div align=&quot;left&quot;&gt;&lt;h1&gt;Server&lt;/h1&gt;&lt;/div&gt;" style="whiteSpace=wrap;html=1;align=left;" vertex="1" parent="1">
          <mxGeometry x="-10" y="80" width="490" height="660" as="geometry" />
        </mxCell>
        <mxCell id="WuP2q_bH3X3hUp2SNomI-3" value="&lt;div align=&quot;left&quot;&gt;&lt;h1&gt;Client&lt;/h1&gt;&lt;/div&gt;" style="rounded=0;whiteSpace=wrap;html=1;align=left;" vertex="1" parent="1">
          <mxGeometry x="540" y="80" width="360" height="660" as="geometry" />
        </mxCell>
        <mxCell id="WuP2q_bH3X3hUp2SNomI-6" style="edgeStyle=orthogonalEdgeStyle;rounded=0;orthogonalLoop=1;jettySize=auto;html=1;exitX=0.5;exitY=1;exitDx=0;exitDy=0;entryX=0.5;entryY=0;entryDx=0;entryDy=0;" edge="1" parent="1" source="WuP2q_bH3X3hUp2SNomI-4" target="WuP2q_bH3X3hUp2SNomI-5">
          <mxGeometry relative="1" as="geometry" />
        </mxCell>
        <mxCell id="WuP2q_bH3X3hUp2SNomI-4" value="File" style="ellipse;whiteSpace=wrap;html=1;aspect=fixed;" vertex="1" parent="1">
          <mxGeometry x="120" y="100" width="80" height="80" as="geometry" />
        </mxCell>
        <mxCell id="WuP2q_bH3X3hUp2SNomI-8" style="edgeStyle=orthogonalEdgeStyle;rounded=0;orthogonalLoop=1;jettySize=auto;html=1;exitX=1;exitY=0.5;exitDx=0;exitDy=0;entryX=0;entryY=0.5;entryDx=0;entryDy=0;" edge="1" parent="1" source="WuP2q_bH3X3hUp2SNomI-5" target="WuP2q_bH3X3hUp2SNomI-7">
          <mxGeometry relative="1" as="geometry" />
        </mxCell>
        <mxCell id="WuP2q_bH3X3hUp2SNomI-5" value="Resource represents tile infrastructure" style="ellipse;whiteSpace=wrap;html=1;aspect=fixed;" vertex="1" parent="1">
          <mxGeometry x="105" y="270" width="110" height="110" as="geometry" />
        </mxCell>
        <mxCell id="WuP2q_bH3X3hUp2SNomI-10" style="edgeStyle=orthogonalEdgeStyle;rounded=0;orthogonalLoop=1;jettySize=auto;html=1;exitX=1;exitY=0;exitDx=0;exitDy=0;entryX=0;entryY=0;entryDx=0;entryDy=0;" edge="1" parent="1" source="WuP2q_bH3X3hUp2SNomI-7" target="WuP2q_bH3X3hUp2SNomI-9">
          <mxGeometry relative="1" as="geometry" />
        </mxCell>
        <mxCell id="WuP2q_bH3X3hUp2SNomI-7" value="Infra node in SceneTree" style="ellipse;whiteSpace=wrap;html=1;aspect=fixed;" vertex="1" parent="1">
          <mxGeometry x="300" y="285" width="80" height="80" as="geometry" />
        </mxCell>
        <mxCell id="WuP2q_bH3X3hUp2SNomI-9" value="Infra node in SceneTree" style="ellipse;whiteSpace=wrap;html=1;aspect=fixed;" vertex="1" parent="1">
          <mxGeometry x="660" y="285" width="80" height="80" as="geometry" />
        </mxCell>
        <mxCell id="WuP2q_bH3X3hUp2SNomI-12" value="InfraNode" style="swimlane;fontStyle=0;childLayout=stackLayout;horizontal=1;startSize=30;horizontalStack=0;resizeParent=1;resizeParentMax=0;resizeLast=0;collapsible=1;marginBottom=0;" vertex="1" parent="1">
          <mxGeometry x="280" y="390" width="140" height="180" as="geometry" />
        </mxCell>
        <mxCell id="WuP2q_bH3X3hUp2SNomI-13" value="SpawnResourceName" style="text;strokeColor=none;fillColor=none;align=left;verticalAlign=middle;spacingLeft=4;spacingRight=4;overflow=hidden;points=[[0,0.5],[1,0.5]];portConstraint=eastwest;rotatable=0;" vertex="1" parent="WuP2q_bH3X3hUp2SNomI-12">
          <mxGeometry y="30" width="140" height="30" as="geometry" />
        </mxCell>
        <mxCell id="WuP2q_bH3X3hUp2SNomI-14" value="Connections" style="text;strokeColor=none;fillColor=none;align=left;verticalAlign=middle;spacingLeft=4;spacingRight=4;overflow=hidden;points=[[0,0.5],[1,0.5]];portConstraint=eastwest;rotatable=0;" vertex="1" parent="WuP2q_bH3X3hUp2SNomI-12">
          <mxGeometry y="60" width="140" height="30" as="geometry" />
        </mxCell>
        <mxCell id="WuP2q_bH3X3hUp2SNomI-15" value="Storage" style="text;strokeColor=none;fillColor=none;align=left;verticalAlign=middle;spacingLeft=4;spacingRight=4;overflow=hidden;points=[[0,0.5],[1,0.5]];portConstraint=eastwest;rotatable=0;" vertex="1" parent="WuP2q_bH3X3hUp2SNomI-12">
          <mxGeometry y="90" width="140" height="30" as="geometry" />
        </mxCell>
        <mxCell id="WuP2q_bH3X3hUp2SNomI-22" value="OwnerID" style="text;strokeColor=none;fillColor=none;align=left;verticalAlign=middle;spacingLeft=4;spacingRight=4;overflow=hidden;points=[[0,0.5],[1,0.5]];portConstraint=eastwest;rotatable=0;" vertex="1" parent="WuP2q_bH3X3hUp2SNomI-12">
          <mxGeometry y="120" width="140" height="30" as="geometry" />
        </mxCell>
        <mxCell id="WuP2q_bH3X3hUp2SNomI-21" value="TimeTillNextSpawn" style="text;strokeColor=none;fillColor=none;align=left;verticalAlign=middle;spacingLeft=4;spacingRight=4;overflow=hidden;points=[[0,0.5],[1,0.5]];portConstraint=eastwest;rotatable=0;" vertex="1" parent="WuP2q_bH3X3hUp2SNomI-12">
          <mxGeometry y="150" width="140" height="30" as="geometry" />
        </mxCell>
        <mxCell id="WuP2q_bH3X3hUp2SNomI-16" value="InfraNode" style="swimlane;fontStyle=0;childLayout=stackLayout;horizontal=1;startSize=30;horizontalStack=0;resizeParent=1;resizeParentMax=0;resizeLast=0;collapsible=1;marginBottom=0;" vertex="1" parent="1">
          <mxGeometry x="630" y="390" width="140" height="150" as="geometry" />
        </mxCell>
        <mxCell id="WuP2q_bH3X3hUp2SNomI-17" value="SpawnResourceName" style="text;strokeColor=none;fillColor=none;align=left;verticalAlign=middle;spacingLeft=4;spacingRight=4;overflow=hidden;points=[[0,0.5],[1,0.5]];portConstraint=eastwest;rotatable=0;" vertex="1" parent="WuP2q_bH3X3hUp2SNomI-16">
          <mxGeometry y="30" width="140" height="30" as="geometry" />
        </mxCell>
        <mxCell id="WuP2q_bH3X3hUp2SNomI-18" value="Connections" style="text;strokeColor=none;fillColor=none;align=left;verticalAlign=middle;spacingLeft=4;spacingRight=4;overflow=hidden;points=[[0,0.5],[1,0.5]];portConstraint=eastwest;rotatable=0;" vertex="1" parent="WuP2q_bH3X3hUp2SNomI-16">
          <mxGeometry y="60" width="140" height="30" as="geometry" />
        </mxCell>
        <mxCell id="WuP2q_bH3X3hUp2SNomI-19" value="Storage" style="text;strokeColor=none;fillColor=none;align=left;verticalAlign=middle;spacingLeft=4;spacingRight=4;overflow=hidden;points=[[0,0.5],[1,0.5]];portConstraint=eastwest;rotatable=0;" vertex="1" parent="WuP2q_bH3X3hUp2SNomI-16">
          <mxGeometry y="90" width="140" height="30" as="geometry" />
        </mxCell>
        <mxCell id="WuP2q_bH3X3hUp2SNomI-23" value="OwnerID" style="text;strokeColor=none;fillColor=none;align=left;verticalAlign=middle;spacingLeft=4;spacingRight=4;overflow=hidden;points=[[0,0.5],[1,0.5]];portConstraint=eastwest;rotatable=0;" vertex="1" parent="WuP2q_bH3X3hUp2SNomI-16">
          <mxGeometry y="120" width="140" height="30" as="geometry" />
        </mxCell>
        <mxCell id="WuP2q_bH3X3hUp2SNomI-24" style="edgeStyle=orthogonalEdgeStyle;rounded=0;orthogonalLoop=1;jettySize=auto;html=1;exitX=1;exitY=0.5;exitDx=0;exitDy=0;entryX=0;entryY=0.5;entryDx=0;entryDy=0;" edge="1" parent="1" source="WuP2q_bH3X3hUp2SNomI-22" target="WuP2q_bH3X3hUp2SNomI-23">
          <mxGeometry relative="1" as="geometry" />
        </mxCell>
        <mxCell id="WuP2q_bH3X3hUp2SNomI-33" value="set" style="edgeLabel;html=1;align=center;verticalAlign=middle;resizable=0;points=[];" vertex="1" connectable="0" parent="WuP2q_bH3X3hUp2SNomI-24">
          <mxGeometry x="-0.2476" relative="1" as="geometry">
            <mxPoint as="offset" />
          </mxGeometry>
        </mxCell>
        <mxCell id="WuP2q_bH3X3hUp2SNomI-25" style="edgeStyle=orthogonalEdgeStyle;rounded=0;orthogonalLoop=1;jettySize=auto;html=1;exitX=1;exitY=0.5;exitDx=0;exitDy=0;entryX=0;entryY=0.5;entryDx=0;entryDy=0;" edge="1" parent="1" source="WuP2q_bH3X3hUp2SNomI-15" target="WuP2q_bH3X3hUp2SNomI-19">
          <mxGeometry relative="1" as="geometry" />
        </mxCell>
        <mxCell id="WuP2q_bH3X3hUp2SNomI-31" value="add/remove items" style="edgeLabel;html=1;align=center;verticalAlign=middle;resizable=0;points=[];" vertex="1" connectable="0" parent="WuP2q_bH3X3hUp2SNomI-25">
          <mxGeometry x="-0.1823" relative="1" as="geometry">
            <mxPoint as="offset" />
          </mxGeometry>
        </mxCell>
        <mxCell id="WuP2q_bH3X3hUp2SNomI-27" style="edgeStyle=orthogonalEdgeStyle;rounded=0;orthogonalLoop=1;jettySize=auto;html=1;exitX=0.5;exitY=0;exitDx=0;exitDy=0;exitPerimeter=0;entryX=0;entryY=0.5;entryDx=0;entryDy=0;dashed=1;" edge="1" parent="1" source="WuP2q_bH3X3hUp2SNomI-26" target="WuP2q_bH3X3hUp2SNomI-15">
          <mxGeometry relative="1" as="geometry" />
        </mxCell>
        <mxCell id="WuP2q_bH3X3hUp2SNomI-28" style="edgeStyle=orthogonalEdgeStyle;rounded=0;orthogonalLoop=1;jettySize=auto;html=1;exitX=0;exitY=0;exitDx=0;exitDy=0;exitPerimeter=0;entryX=0;entryY=0.5;entryDx=0;entryDy=0;dashed=1;" edge="1" parent="1" source="WuP2q_bH3X3hUp2SNomI-26" target="WuP2q_bH3X3hUp2SNomI-14">
          <mxGeometry relative="1" as="geometry" />
        </mxCell>
        <mxCell id="WuP2q_bH3X3hUp2SNomI-26" value="Always starts empty. Only updates must be synced" style="shape=note;whiteSpace=wrap;html=1;backgroundOutline=1;darkOpacity=0.05;" vertex="1" parent="1">
          <mxGeometry x="70" y="540" width="120" height="130" as="geometry" />
        </mxCell>
        <mxCell id="WuP2q_bH3X3hUp2SNomI-29" style="edgeStyle=orthogonalEdgeStyle;rounded=0;orthogonalLoop=1;jettySize=auto;html=1;exitX=1;exitY=0.5;exitDx=0;exitDy=0;entryX=0;entryY=0.5;entryDx=0;entryDy=0;startArrow=classic;startFill=1;" edge="1" parent="1" source="WuP2q_bH3X3hUp2SNomI-14" target="WuP2q_bH3X3hUp2SNomI-18">
          <mxGeometry relative="1" as="geometry" />
        </mxCell>
        <mxCell id="WuP2q_bH3X3hUp2SNomI-30" value="add/remove items" style="edgeLabel;html=1;align=center;verticalAlign=middle;resizable=0;points=[];" vertex="1" connectable="0" parent="WuP2q_bH3X3hUp2SNomI-29">
          <mxGeometry x="-0.1524" y="1" relative="1" as="geometry">
            <mxPoint as="offset" />
          </mxGeometry>
        </mxCell>
        <mxCell id="WuP2q_bH3X3hUp2SNomI-34" style="edgeStyle=orthogonalEdgeStyle;rounded=0;orthogonalLoop=1;jettySize=auto;html=1;exitX=1;exitY=0.5;exitDx=0;exitDy=0;entryX=0;entryY=0.5;entryDx=0;entryDy=0;startArrow=classic;startFill=1;" edge="1" parent="1" source="WuP2q_bH3X3hUp2SNomI-13" target="WuP2q_bH3X3hUp2SNomI-17">
          <mxGeometry relative="1" as="geometry" />
        </mxCell>
        <mxCell id="WuP2q_bH3X3hUp2SNomI-35" value="set" style="edgeLabel;html=1;align=center;verticalAlign=middle;resizable=0;points=[];" vertex="1" connectable="0" parent="WuP2q_bH3X3hUp2SNomI-34">
          <mxGeometry x="-0.302" y="2" relative="1" as="geometry">
            <mxPoint x="7" y="-3" as="offset" />
          </mxGeometry>
        </mxCell>
        <mxCell id="WuP2q_bH3X3hUp2SNomI-36" value="ItemDB" style="shape=cylinder3;whiteSpace=wrap;html=1;boundedLbl=1;backgroundOutline=1;size=15;" vertex="1" parent="1">
          <mxGeometry x="660" y="600" width="60" height="80" as="geometry" />
        </mxCell>
        <mxCell id="WuP2q_bH3X3hUp2SNomI-37" value="ItemDB" style="shape=cylinder3;whiteSpace=wrap;html=1;boundedLbl=1;backgroundOutline=1;size=15;" vertex="1" parent="1">
          <mxGeometry x="310" y="650" width="60" height="80" as="geometry" />
        </mxCell>
        <mxCell id="WuP2q_bH3X3hUp2SNomI-39" style="edgeStyle=orthogonalEdgeStyle;rounded=0;orthogonalLoop=1;jettySize=auto;html=1;exitX=0;exitY=0.5;exitDx=0;exitDy=0;entryX=0;entryY=0.5;entryDx=0;entryDy=0;entryPerimeter=0;" edge="1" parent="1" source="WuP2q_bH3X3hUp2SNomI-13" target="WuP2q_bH3X3hUp2SNomI-37">
          <mxGeometry relative="1" as="geometry">
            <Array as="points">
              <mxPoint x="240" y="435" />
              <mxPoint x="240" y="690" />
            </Array>
          </mxGeometry>
        </mxCell>
        <mxCell id="WuP2q_bH3X3hUp2SNomI-40" style="edgeStyle=orthogonalEdgeStyle;rounded=0;orthogonalLoop=1;jettySize=auto;html=1;exitX=1;exitY=0.5;exitDx=0;exitDy=0;entryX=1;entryY=0.5;entryDx=0;entryDy=0;entryPerimeter=0;" edge="1" parent="1" source="WuP2q_bH3X3hUp2SNomI-17" target="WuP2q_bH3X3hUp2SNomI-36">
          <mxGeometry relative="1" as="geometry">
            <Array as="points">
              <mxPoint x="800" y="435" />
              <mxPoint x="800" y="640" />
            </Array>
          </mxGeometry>
        </mxCell>
      </root>
    </mxGraphModel>
  </diagram>
</mxfile>
